HIERARCHY
ROOT Hips
{
  OFFSET 0 0 0
  CHANNELS 6 Xposition Yposition Zposition Zrotation Yrotation Xrotation
  JOINT LeftThigh
  {
    OFFSET 8.409438 0 -5.917753
    CHANNELS 3 Zrotation Yrotation Xrotation
    JOINT LeftLeg
    {
      OFFSET 0 0 -42.358652
      CHANNELS 3 Zrotation Yrotation Xrotation
      JOINT LeftFoot
      {
        OFFSET 0 0 -39.357303
        CHANNELS 3 Zrotation Yrotation Xrotation
      }
    }
  }
  JOINT RightThigh
  {
    OFFSET -8.409438 0 -5.917753
    CHANNELS 3 Zrotation Yrotation Xrotation
    JOINT RightLeg
    {
      OFFSET 0 0 -42.358652
      CHANNELS 3 Zrotation Yrotation Xrotation
      JOINT RightFoot
      {
        OFFSET 0 0 -39.357303
        CHANNELS 3 Zrotation Yrotation Xrotation
      }
    }
  }
  JOINT SpineLow
  {
    OFFSET 0 0 4.719101
    CHANNELS 3 Zrotation Yrotation Xrotation
    JOINT SpineMid
    {
      OFFSET 0 0 12.899191
      CHANNELS 3 Zrotation Yrotation Xrotation
      JOINT Chest
      {
        OFFSET 0 0 12.899191
        CHANNELS 3 Zrotation Yrotation Xrotation
        JOINT LeftShoulder
        {
          OFFSET 7.550562 1.41573 9.438202
          CHANNELS 3 Zrotation Yrotation Xrotation
          JOINT LeftArm
          {
            OFFSET 9.155056 0 4.247191
            CHANNELS 3 Zrotation Yrotation Xrotation
            JOINT LeftForearm
            {
              OFFSET 0 0 25.771955
              CHANNELS 3 Zrotation Yrotation Xrotation
              JOINT LeftHand
              {
                OFFSET 0 0 25.197169
                CHANNELS 3 Zrotation Yrotation Xrotation
              }
            }
          }
        }
        JOINT RightShoulder
        {
          OFFSET -7.550562 1.41573 9.438202
          CHANNELS 3 Zrotation Yrotation Xrotation
          JOINT RightArm
          {
            OFFSET -9.155056 0 4.247191
            CHANNELS 3 Zrotation Yrotation Xrotation
            JOINT RightForearm
            {
              OFFSET 0 0 -25.771955
              CHANNELS 3 Zrotation Yrotation Xrotation
              JOINT RightHand
              {
                OFFSET 0 0 -25.197169
                CHANNELS 3 Zrotation Yrotation Xrotation
              }
            }
          }
        }
        JOINT Neck
        {
          OFFSET 0 0 15.101124
          CHANNELS 3 Zrotation Yrotation Xrotation
          JOINT Head
          {
            OFFSET 0 0 11.325843
            CHANNELS 3 Zrotation Yrotation Xrotation
            End Site
            {
              OFFSET 0 0 14.157303
            }
          }
        }
      }
    }
  }
}
MOTION
Frames: 18
Frame Time: 0.0
0.0  89.887642  0.0  1.353575  -19.393549  -93.263971  1.027081  -11.788534  -1.869507  -0.28787  6.662042  22.477017  0.916997  0.933823  0.0955  -1.317691  7.79856  -5.202906  -0.778075  6.342809  8.076161  1.069735  0.211124  -0.182871  -0.339777  -0.16763  0.212291  -0.930223  -0.455203  0.582625  -0.930223  -0.455203  0.582625  -2.497269  15.852303  0.622369  144.274344  44.183817  -159.58586  0.510656  1.385692  27.039139  78.040434  -12.734547  5.810077  -1.188649  -3.654803  19.579961  91.161343  38.121915  39.936437  -1.892476  -0.405677  -20.487894  86.637293  8.536206  -20.284309  -0.295511  2.233743  3.506658  -0.234437  1.673678  2.630742  
0.0  89.887642  0.0  1.350002  -19.471594  -93.318998  1.106682  -11.799622  -1.824172  -0.323209  6.685656  22.492311  0.916229  0.940046  0.109589  -1.213432  7.782409  -5.160364  -0.793591  6.37104  8.143842  1.084667  0.209405  -0.189188  -0.320466  -0.168326  0.219353  -0.877494  -0.457182  0.601808  -0.877494  -0.457182  0.601808  -2.496068  15.885553  0.652247  144.259204  44.186426  -159.600364  0.512004  1.368081  27.035127  78.025977  -12.725948  5.777767  -1.243883  -3.628514  19.592367  91.057888  38.135273  39.86672  -1.859346  -0.400327  -20.520953  86.620378  8.54214  -20.299916  -0.357116  2.223868  3.524836  -0.280647  1.665908  2.644596  
0.0  89.887642  0.0  1.336626  -19.501877  -93.335355  1.162256  -11.823378  -1.814998  -0.347855  6.716374  22.524949  0.903722  0.93486  0.112429  -1.197584  7.756301  -5.176031  -0.760927  6.395277  8.221837  1.085193  0.214184  -0.187371  -0.315324  -0.170519  0.22008  -0.863465  -0.463214  0.603788  -0.863465  -0.463214  0.603788  -2.509669  15.896968  0.655864  144.239917  44.188204  -159.601396  0.508663  1.361745  27.013124  78.030783  -12.724186  5.762099  -1.241614  -3.604153  19.60787  90.999078  38.127052  39.825482  -1.848867  -0.3964  -20.5379  86.605815  8.539927  -20.305704  -0.366544  2.232254  3.553255  -0.287869  1.672127  2.665945  
0.0  89.887642  0.0  1.325337  -19.562236  -93.366082  1.222914  -11.841529  -1.800596  -0.353029  6.74458  22.578424  0.892924  0.927679  0.106856  -1.161174  7.739706  -5.179276  -0.695671  6.410885  8.308622  1.07779  0.218601  -0.187102  -0.305368  -0.171598  0.225373  -0.836296  -0.466186  0.618201  -0.836296  -0.466186  0.618201  -2.462855  15.908238  0.655033  144.278228  44.171338  -159.604754  0.517918  1.368105  27.010607  78.019264  -12.72382  5.760248  -1.240672  -3.583421  19.603949  90.8509  38.143846  39.725431  -1.824588  -0.389976  -20.555967  86.620176  8.556726  -20.308883  -0.380682  2.232234  3.581523  -0.298575  1.672014  2.687195  
0.0  89.887642  0.0  1.31078  -19.586308  -93.38393  1.261947  -11.865721  -1.786586  -0.374875  6.775651  22.607824  0.884621  0.922498  0.11056  -1.158931  7.715738  -5.193519  -0.663544  6.430915  8.387229  1.073445  0.225719  -0.185438  -0.302422  -0.171565  0.22925  -0.828271  -0.466077  0.628774  -0.828271  -0.466077  0.628774  -2.464259  15.895907  0.626584  144.276253  44.161272  -159.602809  0.519391  1.379033  27.000694  78.032157  -12.724434  5.757208  -1.22284  -3.580423  19.594178  90.789717  38.128208  39.682239  -1.800409  -0.376325  -20.568172  86.619685  8.560105  -20.313724  -0.378045  2.239768  3.610887  -0.296749  1.677663  2.709207  
0.0  89.887642  0.0  1.294647  -19.625039  -93.410041  1.25599  -11.892581  -1.787627  -0.34499  6.801275  22.672716  0.872098  0.919841  0.110152  -1.151912  7.683731  -5.204097  -0.678067  6.456142  8.456594  1.096362  0.239549  -0.176882  -0.294443  -0.171771  0.234339  -0.806498  -0.466654  0.642634  -0.806498  -0.466654  0.642634  -2.470397  15.882616  0.596316  144.339032  44.130708  -159.603535  0.537447  1.397061  27.014753  78.034726  -12.728246  5.765544  -1.244035  -3.576993  19.572841  90.718082  38.113942  39.615513  -1.796585  -0.370159  -20.579625  86.587077  8.558611  -20.301114  -0.38695  2.241256  3.6522  -0.303588  1.678702  2.740222  
0.0  89.887642  0.0  1.281069  -19.639314  -93.426505  1.252335  -11.920666  -1.771679  -0.341728  6.838134  22.708659  0.870357  0.91601  0.108833  -1.165247  7.654809  -5.221566  -0.6439  6.482963  8.535075  1.098352  0.246942  -0.171716  -0.297305  -0.17308  0.238149  -0.814361  -0.470156  0.653085  -0.814361  -0.470156  0.653085  -2.432577  15.875259  0.5708  144.357751  44.11506  -159.586395  0.549806  1.412249  27.019342  78.034884  -12.729206  5.78399  -1.197607  -3.560855  19.561897  90.690924  38.099485  39.577082  -1.78086  -0.356026  -20.589236  86.578412  8.568654  -20.278801  -0.36119  2.258522  3.684479  -0.284492  1.691788  2.764337  
0.0  89.887642  0.0  1.259984  -19.638958  -93.438697  1.198644  -11.948465  -1.770462  -0.265148  6.867913  22.787949  0.845153  0.900147  0.093484  -1.227128  7.628714  -5.250178  -0.557112  6.504644  8.616089  1.081637  0.243239  -0.158529  -0.296495  -0.174421  0.243057  -0.812196  -0.473768  0.666509  -0.812196  -0.473768  0.666509  -2.430059  15.877959  0.543863  144.424986  44.100495  -159.580719  0.584421  1.431248  27.058209  78.025822  -12.724787  5.800718  -1.223486  -3.54909  19.5219  90.668434  38.084986  39.53416  -1.782509  -0.344948  -20.619971  86.487903  8.563975  -20.251532  -0.33676  2.265982  3.724841  -0.266366  1.69751  2.794517  
0.0  89.887642  0.0  1.245961  -19.653366  -93.464051  1.183604  -11.97284  -1.742974  -0.248521  6.897793  22.826559  0.841251  0.895043  0.091296  -1.242783  7.599067  -5.243214  -0.513193  6.533004  8.676867  1.079063  0.244026  -0.148911  -0.288569  -0.174087  0.245315  -0.790543  -0.472909  0.672621  -0.790543  -0.472909  0.672621  -2.446617  15.865571  0.548029  144.442116  44.090779  -159.569084  0.597327  1.442612  27.081922  78.042965  -12.719303  5.8201  -1.24019  -3.534829  19.533323  90.646798  38.076497  39.49108  -1.77432  -0.328991  -20.651466  86.448422  8.566577  -20.244893  -0.34333  2.276307  3.761852  -0.271494  1.705195  2.822298  
0.0  89.887642  0.0  1.222073  -19.629941  -93.482207  1.129437  -12.009006  -1.725135  -0.23441  6.926376  22.869301  0.852026  0.902295  0.091665  -1.33919  7.565553  -5.2485  -0.427056  6.558544  8.752654  1.098236  0.238712  -0.148389  -0.28904  -0.177156  0.244792  -0.791858  -0.481298  0.671231  -0.791858  -0.481298  0.671231  -2.441506  15.876018  0.567311  144.466769  44.084093  -159.564433  0.619491  1.450396  27.115402  78.060721  -12.697264  5.844717  -1.284275  -3.49975  19.539157  90.636667  38.063762  39.477441  -1.822303  -0.347486  -20.73889  86.378982  8.572756  -20.247814  -0.317301  2.290431  3.81442  -0.252258  1.715923  2.861624  
0.0  89.887642  0.0  1.201164  -19.631828  -93.51767  1.111054  -12.049126  -1.692864  -0.211351  6.965006  22.920927  0.836912  0.895144  0.088087  -1.381165  7.535605  -5.232897  -0.379266  6.5815  8.817879  1.104292  0.235591  -0.140611  -0.284293  -0.179272  0.248466  -0.778933  -0.487087  0.681264  -0.778933  -0.487087  0.681264  -2.446344  15.876221  0.570816  144.473033  44.074594  -159.562725  0.636522  1.45935  27.14077  78.092501  -12.671725  5.856513  -1.286044  -3.455104  19.562681  90.512041  38.049465  39.376904  -1.810509  -0.323136  -20.835201  86.325023  8.583267  -20.241721  -0.311188  2.30544  3.838298  -0.247857  1.727207  2.879511  
0.0  89.887642  0.0  1.166755  -19.600504  -93.54644  1.016546  -12.111538  -1.687318  -0.195128  7.008546  22.980289  0.856309  0.908307  0.097664  -1.517618  7.512739  -5.249334  -0.242523  6.590103  8.921541  1.109669  0.226052  -0.129718  -0.275702  -0.181622  0.253108  -0.755509  -0.493547  0.693917  -0.755509  -0.493547  0.693917  -2.492921  15.865617  0.571335  144.424552  44.069391  -159.554416  0.613935  1.462483  27.127076  78.147991  -12.61152  5.864565  -1.399702  -3.427036  19.550105  90.342465  38.036489  39.308092  -1.807649  -0.32896  -21.04289  86.255606  8.602335  -20.213471  -0.339487  2.312259  3.86244  -0.269214  1.732132  2.897722  
0.0  89.887642  0.0  1.143067  -19.588799  -93.595748  1.000961  -12.154973  -1.648914  -0.189627  7.053843  23.041985  0.839608  0.898014  0.096938  -1.577343  7.484371  -5.23745  -0.234239  6.615397  9.019036  1.113603  0.224407  -0.127911  -0.259523  -0.18002  0.256631  -0.711293  -0.489299  0.703409  -0.711293  -0.489299  0.703409  -2.579796  15.84213  0.589563  144.410456  44.059213  -159.559899  0.625118  1.464783  27.136211  78.223896  -12.541946  5.8537  -1.480508  -3.403911  19.594912  90.05727  38.035422  39.129887  -1.742467  -0.294937  -21.236624  86.177485  8.623436  -20.195335  -0.37455  2.309862  3.888798  -0.295594  1.730097  2.91762  
0.0  89.887642  0.0  1.122002  -19.586925  -93.66219  0.994088  -12.207257  -1.604761  -0.222529  7.115617  23.089078  0.828439  0.88784  0.104531  -1.706757  7.499489  -5.261899  -0.09624  6.613487  9.183191  1.083515  0.209233  -0.131688  -0.238911  -0.180711  0.260768  -0.654991  -0.491366  0.714574  -0.654991  -0.491366  0.714574  -2.64448  15.844947  0.642882  144.332088  44.064158  -159.553744  0.630951  1.453205  27.09117  78.303995  -12.481112  5.829432  -1.631804  -3.379399  19.608266  89.67418  38.046571  38.898858  -1.662566  -0.278244  -21.470242  86.114851  8.650883  -20.183766  -0.424065  2.312185  3.926821  -0.332886  1.7315  2.946322  
0.0  89.887642  0.0  1.114164  -19.545891  -93.713374  0.972031  -12.233893  -1.59172  -0.230858  7.171144  23.174978  0.812145  0.869519  0.106056  -1.861526  7.499427  -5.30069  -0.109986  6.636395  9.328673  1.113795  0.208223  -0.130158  -0.226113  -0.179679  0.25997  -0.61999  -0.488693  0.712286  -0.61999  -0.488693  0.712286  -2.723341  15.843952  0.704624  144.282174  44.06054  -159.550936  0.647074  1.434334  27.071163  78.380069  -12.450565  5.78842  -1.706233  -3.349154  19.663352  89.373098  38.042037  38.722977  -1.607364  -0.278445  -21.72682  86.03128  8.687952  -20.126234  -0.458103  2.316751  3.96774  -0.358597  1.734677  2.977139  
0.0  89.887642  0.0  1.104028  -19.456688  -93.733029  0.902173  -12.263629  -1.620956  -0.248714  7.227143  23.262915  0.801608  0.863327  0.116518  -2.173029  7.520343  -5.414878  -0.198897  6.643627  9.473539  1.24131  0.209305  -0.124008  -0.215633  -0.179968  0.25599  -0.591318  -0.489631  0.701333  -0.591318  -0.489631  0.701333  -2.705616  15.888859  0.79984  144.149309  44.080676  -159.58082  0.705178  1.407288  27.075644  78.456961  -12.4421  5.751932  -1.928972  -3.306097  19.63748  89.096011  38.010113  38.560977  -1.52393  -0.255611  -22.072632  85.99703  8.726905  -20.037395  -0.520677  2.317678  4.008883  -0.405686  1.734934  3.00823  
0.0  89.887642  0.0  1.116912  -19.378306  -93.771221  0.891935  -12.264953  -1.64688  -0.293499  7.292238  23.359722  0.782849  0.838626  0.122148  -2.470193  7.539722  -5.503308  -0.143695  6.666993  9.638367  1.328352  0.21277  -0.117754  -0.204543  -0.17667  0.253193  -0.56095  -0.480758  0.693576  -0.56095  -0.480757  0.693576  -2.781116  15.893002  0.862349  144.035399  44.075164  -159.589721  0.708293  1.361371  27.043778  78.510912  -12.406811  5.698415  -1.985675  -3.251523  19.68989  88.62902  38.012497  38.299031  -1.462504  -0.191869  -22.461011  85.896255  8.748094  -19.933894  -0.561726  2.323672  4.051304  -0.436671  1.739124  3.040201  
0.0  89.887642  0.0  1.133783  -19.27165  -93.804706  0.898345  -12.290557  -1.670466  -0.362594  7.375982  23.45331  0.747793  0.818644  0.124063  -2.90801  7.551598  -5.640642  -0.138983  6.669818  9.803326  1.546908  0.253777  -0.113101  -0.18551  -0.174698  0.251601  -0.508892  -0.475581  0.689073  -0.508892  -0.475581  0.689073  -2.818127  15.913228  0.935377  143.945304  44.035203  -159.624964  0.821247  1.297491  27.086325  78.582538  -12.383093  5.65102  -2.28849  -3.158049  19.630375  88.117205  37.941494  37.944685  -1.350966  -0.118062  -22.938455  85.771968  8.733702  -19.866396  -0.647084  2.329266  4.087721  -0.50086  1.742717  3.067839  
